<svg id="Capa_1" data-name="Capa 1" xmlns="http://www.w3.org/2000/svg" viewBox="0 0 19.38 19.38"><defs><style>.cls-1{fill:#334b7df3;}</style></defs><path class="cls-1" d="M17.58,5.92l-5.3.78-1.49.71L9.6,7.48l-2.72.74A2.05,2.05,0,0,0,5.91,7a2.85,2.85,0,0,0-2.17-.23,2.46,2.46,0,0,0-2,2.84,2,2,0,0,0,1,1.22,2.83,2.83,0,0,0,2.16.23,3,3,0,0,0,.93-.42h0l.06-.05A7.38,7.38,0,0,1,9.32,9a7.38,7.38,0,0,1-1.61,3.41l0,.06h0a2.84,2.84,0,0,0-.43.93,2.91,2.91,0,0,0,.23,2.17,2,2,0,0,0,1.22,1h.05a4.18,4.18,0,0,0,1.2,2.68h0a.56.56,0,0,0,.8-.79,3,3,0,0,1-.88-1.95,2.77,2.77,0,0,0,1.67-1.92,2.85,2.85,0,0,0-.23-2.17,2.05,2.05,0,0,0-1.21-1l.74-2.71c.58-.2,2.41-.68,2.41-.68S16.62,6.58,17.3,6.4C17.94,6,17.58,5.92,17.58,5.92Zm-13,4A1.68,1.68,0,0,1,3.34,9.8a.87.87,0,0,1-.42-.49c-.14-.54.38-1.17,1.14-1.38a1.66,1.66,0,0,1,1.25.12.84.84,0,0,1,.42.49C5.88,9.08,5.36,9.71,4.6,9.92ZM10.25,13a1.66,1.66,0,0,1,.12,1.25c-.21.76-.84,1.28-1.38,1.14A.87.87,0,0,1,8.5,15a1.73,1.73,0,0,1-.12-1.26c.21-.76.84-1.27,1.38-1.13A.84.84,0,0,1,10.25,13Z"/><path class="cls-1" d="M11.64,5.6l.7-5.46s-.15-.5-.39.38c-.13.47-1.7,4.25-1.7,4.25S9.78,6.39,9.6,6.94l1.19-.06Z"/></svg>