<svg xmlns="http://www.w3.org/2000/svg" viewBox="0 0 1930.62 732.7"><defs><style>.cls-1{opacity:0.7;}.cls-2{opacity:0.7;}.cls-3{fill:#fccd8e;}.cls-4{fill:#3a5584;}</style></defs><g id="Calque_2" data-name="Calque 2"><g id="Calque_1-2" data-name="Calque 1"><g id="Calque_2-2" data-name="Calque 2" class="cls-1"><g id="Calque_1-2-2" data-name="Calque 1-2"><g class="cls-2"><path class="cls-3" d="M.2,116.27.06,136.8a256.92,256.92,0,0,0,86.42,73.14C203.36,270.35,337,232.23,466.19,195.35c123.12-35.13,250.43-71.47,362.56-22.29,46,20.15,85.84,53.87,124.41,86.47,46,38.91,93.63,79.14,152.2,97.09,101.29,31,202.72-11.08,300.81-51.83,43.45-18.05,88.37-36.71,132.73-48.79,131.09-35.74,273.86-8.2,389.23,62.8l-.09-13.9c-117-69.85-260.44-96.42-392.3-60.48-45.09,12.29-90.38,31.1-134.17,49.29C1301,335.48,1206,374.93,1108.88,345.15c-56.25-17.24-102.89-56.66-148-94.78-39.23-33.16-79.79-67.45-127.34-88.3-116.1-50.9-245.52-14-370.68,21.74C330.06,221.72,204.62,257.52,92,199.29A246.44,246.44,0,0,1,.2,116.27Z"/></g><path class="cls-4" d="M.13,128.88,0,148.63C81.89,254.39,189.84,322.19,298.4,335.49,402.19,348.18,504.16,314,602.81,281c13.33-4.47,26.62-8.92,39.87-13.24C743.46,234.88,873,203.39,981.17,252.08c50.32,22.64,92.56,61.15,133.4,98.38,41.59,37.91,84.58,77.1,136.7,100.52,76,34.17,170.22,34.93,280,2.27,46-13.67,91.15-31.72,134.84-49.18,42.17-16.85,85.82-34.27,129.82-47.63q70.85-21.43,132.25-24.2l-.07-12Q1864.87,323,1792.45,345c-44.53,13.46-88.38,31-130.79,47.88-43.45,17.36-88.37,35.31-133.81,48.83C1420.9,473.54,1329.48,473,1256.15,440c-50.37-22.6-92.65-61.14-133.5-98.41-41.56-37.87-84.5-77-136.56-100.46C874.2,190.76,741.79,222.8,639,256.35c-13.31,4.33-26.63,8.79-40,13.27C501.57,302.23,400.82,336,299.82,323.57,190.26,310.15,81.08,239.21.13,128.88Z"/><path class="cls-4" d="M.93,0,.84,12.73C28.69,22.6,60.27,29.1,95.27,32c28.88,2.41,58.4,2.65,86.88,2.87,39.06.31,79.46.62,118.46,6.62,50.8,7.8,100.66,25.44,148.87,42.44,58.14,20.53,118.26,41.76,180.93,46.23,71.6,5.12,144.87-11.54,215.71-27.63C949.9,79,1047.91,56.69,1139.24,98c100.78,45.62,148.19,147.13,198.41,254.55,22.16,47.53,45.11,96.68,73,140.07,96.9,150.76,276.51,240.08,454.68,240.08a522,522,0,0,0,65.29-4.08l-.07-12c-194.17,25.19-403.19-64.62-509.8-230.44-27.46-42.72-50.26-91.49-72.26-138.66-48.87-104.72-99.48-213-204.31-260.44-95-43-199.56-19.23-300.75,3.77-70,15.91-142.34,32.37-212.2,27.37-61.05-4.35-120.39-25.31-177.78-45.58-48.7-17.23-99.1-35-151-43-39.87-6.12-80.7-6.44-120.19-6.76-28.28-.22-57.51-.45-86-2.83C67.54,17.66,33.53,12.07.93,0Z"/></g></g></g></g></svg>