<svg xmlns="http://www.w3.org/2000/svg" viewBox="0 0 2900 485.73"><defs><style>.cls-1{fill:#FBCC8E;}</style></defs><g id="Calque_2" data-name="Calque 2"><g id="Ñëîé_1" data-name="Ñëîé 1"><path class="cls-1" d="M2849.53,120.2c-57.05-14.51-146.63-14-249.45,70.79-80.87,66.72-159.25,89.62-215,62.77-43.72-21-65.46-71.72-48.45-113,17.66-42.88-.3-78.84-27.17-92.19-25.12-12.51-65.7-8.1-97.3,45.42-29.24,49.54-75.71,80.38-124.31,82.49-54.21,2.46-103.75-31.05-139.29-94C1917,26.5,1858.71-5.54,1800.35.79c-39.39,4.28-112.42,30.13-159,155.3-36,96.68-91.65,159.57-156.75,177.07-62.52,16.78-125.53-11.94-173-78.82S1217.51,153.43,1173,153.43h-.62c-41.28.29-81.83,29.86-120.52,87.88-34.16,51.26-69.07,79.63-106.72,86.76-30.63,5.78-63.94-2.31-104.88-25.51-42.52-24.09-83-33.12-120.31-26.78-47.81,8.09-91.89,41.41-131,99-41.75,61.47-98.49,100.28-155.66,106.46-59.88,6.52-110.58-23.47-142.7-84.38-35.37-67.1-91.05-114.17-152.75-129.14C91.28,256.44,44,264.27,0,289.77V294C43.68,268.07,90.75,260,137,271.23,197.7,286,252.53,332.36,287.42,398.54c29.9,56.71,75.62,87.19,129.94,87.19a150.82,150.82,0,0,0,16.32-.9c58.22-6.31,115.91-45.67,158.26-108,38.55-56.76,81.83-89.56,128.64-97.49,36.5-6.17,76.16,2.7,117.94,26.37s75.8,31.86,107.32,25.9c38.64-7.3,74.32-36.18,109.05-88.28,38-57,77.53-86,117.54-86.28h.6c43.24,0,88.89,33.43,135.68,99.39,48.37,68.18,112.84,97.43,176.83,80.2,66.26-17.8,122.79-81.47,159.19-179.28,45.89-123.36,117.44-148.79,156-153,57.09-6.18,113.81,25.15,144.65,79.82,36.24,64.24,86.66,98.36,142.59,95.87,49.81-2.17,97.38-33.66,127.25-84.25,30.34-51.41,68.84-55.85,92.61-44,25.37,12.61,42.26,46.76,25.44,87.61-17.72,43,4.81,95.77,50.21,117.61,57.11,27.44,136.88,4.42,218.89-63.24,101.63-83.85,190-84.39,246.27-70.08A242.82,242.82,0,0,1,2900,143.21v-4A246.37,246.37,0,0,0,2849.53,120.2Z"/></g></g></svg>