<svg xmlns="http://www.w3.org/2000/svg" viewBox="0 0 192.89 192.84"><defs><style>.cls-1{fill:#fccd8e;}</style></defs><g id="Calque_2" data-name="Calque 2"><g id="Calque_1-2" data-name="Calque 1"><path class="cls-1" d="M96.52,0C114.36,0,132.21.17,150,0a42.78,42.78,0,0,1,41.22,31,38.89,38.89,0,0,1,1.56,10.73c0,36.44.2,72.89-.09,109.33-.12,15.74-7.71,27.7-21.06,35.92a38.93,38.93,0,0,1-18.31,5.66c-1.36.08-2.71.18-4.07.18q-53.22,0-106.44,0a41.66,41.66,0,0,1-24.08-7.38A42.3,42.3,0,0,1,.87,158.52,37,37,0,0,1,.1,150.8c0-36.32-.23-72.65.06-109,.13-16.08,7.9-28.21,21.7-36.38A40.37,40.37,0,0,1,43,0C60.85.08,78.69,0,96.52,0Zm.64,162c9.16,0,18.32,0,27.48,0a37.33,37.33,0,0,0,37.44-37.27q.13-28.38,0-56.77a37.22,37.22,0,0,0-37.29-37.26q-28.44-.14-56.88,0A37.31,37.31,0,0,0,30.81,68.12c0,18.88,0,37.77.05,56.65a38.71,38.71,0,0,0,1.09,8.9,37.26,37.26,0,0,0,35.81,28.38C77.56,162.12,87.36,162.06,97.16,162.06Z"/><path class="cls-1" d="M96.49,42h27.84a26.06,26.06,0,0,1,26.51,26.55v55.57c0,15.2-11.47,26.69-26.64,26.69H68.51a26.11,26.11,0,0,1-26.46-26.4q0-28,0-56A26.07,26.07,0,0,1,68.4,42C77.76,42,87.12,42,96.49,42Zm-.16,20.78A33.62,33.62,0,1,0,130.06,96.4,33.68,33.68,0,0,0,96.33,62.77Zm43.24-1.91a8.06,8.06,0,1,0-8.11,8.06A8.08,8.08,0,0,0,139.57,60.86Z"/><path class="cls-1" d="M96.39,118.75a22.37,22.37,0,1,1,22.44-22.3A22.36,22.36,0,0,1,96.39,118.75Z"/></g></g></svg>