<svg xmlns="http://www.w3.org/2000/svg" viewBox="0 0 192.75 192.82"><defs><style>.cls-1{fill:#fccd8e;}</style></defs><g id="Calque_2" data-name="Calque 2"><g id="Calque_1-2" data-name="Calque 1"><path class="cls-1" d="M192.73,96.36c0,17.92-.06,35.85,0,53.77a42.62,42.62,0,0,1-34,41.73,44.88,44.88,0,0,1-8.65.91q-53.53.09-107,0A41.82,41.82,0,0,1,13,180.73,41.14,41.14,0,0,1,.46,155.65a55.17,55.17,0,0,1-.42-6.8Q0,96.11.05,43.36c0-16.1,7-28.57,20.57-37.22a38.56,38.56,0,0,1,17-5.83C39.28.15,40.92.05,42.55.05c35.85,0,71.69-.13,107.53,0,17.71.09,30.48,8.65,38.55,24.25a38.16,38.16,0,0,1,4.1,17.78Zm-62-26.64h-1.81c-6.64,0-13.27,0-19.91,0-1.22,0-1.7-.28-1.67-1.59.09-3.3,0-6.59,0-9.88,0-5.13,2.33-7.38,7.49-7.38H129c.74,0,1.41.06,1.41-1,0-7.71,0-15.41,0-23.11,0-.76-.25-1.09-1.05-1.08-8.91.1-17.85-.15-26.73.38-8.23.49-15.25,4-20.16,10.92-4.07,5.75-5.59,12.29-5.69,19.23,0,4.05,0,8.1,0,12.16,0,1.05-.32,1.4-1.39,1.39-3.9,0-7.8,0-11.7,0-1.14,0-1.6.23-1.59,1.49q.07,13.23,0,26.45c0,1.26.43,1.52,1.58,1.5,3.75-.06,7.49,0,11.24,0,2,0,2,0,2,2q0,34.8,0,69.61c0,1.46.39,1.88,1.86,1.87,8.51-.07,17,0,25.53,0,2,0,2,0,2-2.08q0-34.72,0-69.46c0-1.55.41-2,2-1.94,5.93.1,11.86,0,17.78,0,2.07,0,2.06,0,2.24-2q.87-9.47,1.73-18.92C130.18,75.45,130.42,72.7,130.69,69.72Z"/></g></g></svg>