<svg width="1441" height="449" viewBox="0 0 1441 449" fill="none" xmlns="http://www.w3.org/2000/svg">
<path d="M2549.43 19.5024C2492.67 36.1192 2401.73 51.7229 2290.73 31.7192C2203.43 15.9719 2122.09 19.5148 2067.62 41.458C2024.9 58.6408 2006.82 85.3203 2027.32 100.9C2048.6 117.086 2033.2 136.452 2006.97 147.212C1982.46 157.284 1940.94 162.471 1904.67 143.959C1871.11 126.821 1821.53 121.149 1772.05 128.789C1716.84 137.263 1669.2 161.107 1638.07 195.733C1610.43 226.516 1553.79 251.245 1494.06 258.71C1453.76 263.745 1377.62 265.014 1320.53 216.889C1276.41 179.721 1215.01 161.241 1147.57 164.868C1082.81 168.363 1021.12 192.431 978.187 230.935C935.258 269.438 890.616 293 845.446 300.867L844.817 300.977C802.902 308.143 759.432 301.996 715.619 282.711C676.933 265.668 639.28 259.065 600.513 262.509C568.976 265.321 535.807 274.851 496.079 292.533C454.818 310.895 414.446 322.116 376.086 325.855C326.933 330.663 279.586 323.452 235.381 304.434C188.191 284.137 127.567 276.691 69.0646 284.013C7.78576 291.661 -41.3139 314.126 -69.1334 347.228C-99.7657 383.692 -152.58 414.727 -214.02 432.373C-260.386 445.681 -308.981 450.512 -355.633 446.808L-355.964 444.903C-309.603 448.858 -261.203 444.172 -215.148 430.941C-154.707 413.562 -102.699 382.997 -72.4821 347.032C-46.5862 316.213 -2.57879 294.408 52.5464 284.807C58.0798 283.846 63.6321 283.018 69.1789 282.328C128.757 274.879 190.388 282.404 238.254 302.983C281.827 321.726 328.32 328.844 376.446 324.141C413.971 320.468 453.523 309.464 494.066 291.422C534.609 273.38 568.491 263.679 600.946 260.792C640.731 257.249 679.205 263.946 718.535 281.265C761.569 300.214 803.959 306.284 844.584 299.338L845.192 299.232C889.073 291.59 932.778 268.469 975.089 230.5C1018.83 191.252 1081.96 166.687 1148.25 163.135C1216.89 159.438 1279.25 178.114 1323.86 215.72C1380.1 263.152 1454.71 261.956 1494.17 257.036C1552.59 249.728 1607.7 225.596 1634.71 195.529C1666.44 160.199 1714.94 135.925 1771.89 127.161C1822.61 119.334 1873.35 125.104 1907.63 142.603C1942.45 160.388 1981.87 155.582 2005.07 146.045C2029.82 135.884 2044.29 117.522 2024.01 102.102C2002.66 85.8731 2021.38 58.131 2065.74 40.2729C2121.55 17.8237 2204.31 14.0892 2292.84 30.0582C2402.55 49.849 2492.27 34.4727 2548.25 18.0839C2565.97 12.8933 2582.94 6.9008 2598.85 0.221471L2599.16 2.02249C2583.48 8.54018 2566.81 14.4019 2549.43 19.5024Z" fill="#FBCC8E"/>
</svg>
