<svg xmlns="http://www.w3.org/2000/svg" viewBox="0 0 5400.58 869.63"><defs><style>.cls-1{fill:none;stroke:#fccd8e;stroke-miterlimit:10;stroke-width:9px;}</style></defs><g id="Calque_2" data-name="Calque 2"><g id="Calque_1-2" data-name="Calque 1"><path class="cls-1" d="M2.45,513.77S318.05,718.56,685.86,474s577.7-62.15,577.7-62.15A414.74,414.74,0,0,1,1381.75,531c25.26,27.93,63.24,60.66,116.15,79.58,120.41,43.05,246.55-3,287.32-35.66,76.41-61.13,145.7-85.44,145.7-85.44s115.58-47.24,155.88,39.59c4,8.58,7.12,19.18,13,29.93a182.37,182.37,0,0,0,36.14,46.26c20.15,17.25,81.18,64.88,169.93,67.47,145.3,4.25,234.45-162.9,238.75-167.09,0,0,84.73-121.64,172.87-225.17,80.83-94.94,201.74-175.25,361.7-153.85,244.53,24.45,383.92,327,425.89,436.07,40.75,106,85.58,274.75,205.81,281.21s180.34-41.77,373.92-148.75c0,0,149.78-116.15,204.79,78.45s239.44,40.75,284.27-108-2-457.47,106-604.19,307.7,36.68,307.7,36.68,185.33,187.17,237.4,252.68c61.56,77.47,175.17,79.48,175.24,79.47h0"/></g></g></svg>