<svg xmlns="http://www.w3.org/2000/svg" viewBox="0 0 1622.44 460.68"><defs><style>.cls-1{fill:#d1a57a;}</style></defs><g id="Calque_2" data-name="Calque 2"><g id="Ñëîé_1" data-name="Ñëîé 1"><path class="cls-1" d="M1540.57,80.32c-50.5,29.58-90.31,69.78-128.81,108.66-7.26,7.34-14.43,14.58-21.56,21.63-44.22,43.72-90.42,62.19-130.09,52-42.94-11-77.45-54.35-99.78-125.3C1137,63.15,1087.65,12.57,1028.38,2c-62.43-11.15-123,24.5-166.3,97.76-50.64,85.71-110,148.86-167,177.82-68.79,34.92-131.7,21.18-187-40.85-57.22-64.24-119.48-89.66-180-73.55-54.81,14.59-103.32,62.21-136.58,134.08C163.72,357.32,128.3,401.62,86.23,429c-39.05,25.37-72,28.12-84.39,28.12h0a1.8,1.8,0,1,0,0,3.6h0c12.72,0,46.5-2.81,86.34-28.7,42.65-27.71,78.51-72.53,106.59-133.2C227.59,227.89,275.26,181,329,166.66c59.12-15.74,120.16,9.31,176.41,72.47,55.7,62.51,121.84,76.91,191.28,41.67,57.63-29.27,117.47-92.91,168.46-179.2C907.66,29.7,966.93-5.29,1027.74,5.54c57.94,10.33,106.22,60,129.16,132.84,22.73,72.2,58.11,116.36,102.31,127.71,40.92,10.53,88.36-8.28,133.52-52.93,7.14-7.06,14.32-14.31,21.59-21.65,38.33-38.72,78-78.75,128.07-108.09a302.88,302.88,0,0,1,80-32.89V46.8A306.07,306.07,0,0,0,1540.57,80.32Z"/></g></g></svg>