<?xml version="1.0" encoding="utf-8"?>
<!-- Generator: Adobe Illustrator 26.0.1, SVG Export Plug-In . SVG Version: 6.00 Build 0)  -->
<svg version="1.1" id="Calque_1" xmlns="http://www.w3.org/2000/svg" xmlns:xlink="http://www.w3.org/1999/xlink" x="0px" y="0px"
	 viewBox="0 0 532.2 176.1" style="enable-background:new 0 0 532.2 176.1;" xml:space="preserve">
<style type="text/css">
	.st0{fill:#FFFFFF;}
	.st1{fill:none;stroke:#FFFFFF;stroke-width:4;stroke-miterlimit:10;}
	.st2{fill:#FBCC8E;}
</style>
<g id="Calque_2_00000068672784053469076980000001094853871132812184_">
	<g id="Calque_1-2">
		<g id="Calque_1-3">
			<path class="st0" d="M144.4,46.3V3.9h4.5v38.5h28.7v3.9L144.4,46.3z"/>
			<path class="st0" d="M183.1,46.3V3.9h32.1v3.7h-27.7v15H211v3.8h-23.4v16.1h27.7v3.7L183.1,46.3L183.1,46.3z"/>
			<path class="st0" d="M250.6,16.6c-0.1-1.6-0.5-3.2-1.2-4.6c-0.7-1.2-1.7-2.3-2.8-3.2c-1.2-0.8-2.6-1.4-4.1-1.8
				c-1.7-0.4-3.4-0.6-5.1-0.6c-1.3,0-2.6,0.1-3.9,0.3c-1.4,0.2-2.7,0.6-3.9,1.2c-1.2,0.6-2.2,1.4-3,2.5c-0.8,1.2-1.3,2.7-1.2,4.2
				c-0.1,1.1,0.2,2.3,0.7,3.3c0.5,0.8,1.1,1.6,1.8,2.2c0.8,0.6,1.7,1,2.6,1.4c1,0.3,2.1,0.6,3.1,0.8c0.9,0.2,1.8,0.3,2.7,0.4
				c1,0.1,2,0.3,3.1,0.4c1,0.1,2,0.2,3,0.4c0.8,0.1,1.7,0.2,2.5,0.4c1.4,0.2,2.8,0.5,4.1,1c1.2,0.5,2.4,1.1,3.4,1.9
				c1,0.9,1.8,1.9,2.3,3.1c0.6,1.5,0.9,3,0.8,4.6c0.1,2.2-0.4,4.4-1.5,6.3c-1,1.6-2.3,3-3.9,4c-1.7,1-3.5,1.7-5.4,2.1
				c-1.9,0.4-3.9,0.6-5.8,0.6c-2.5,0-4.9-0.3-7.3-1c-2.1-0.6-4.1-1.6-5.9-2.9c-1.7-1.3-3.1-2.9-4.2-4.7c-1.1-2-1.8-4.2-2-6.5h4.1
				c0.2,1.8,0.9,3.6,1.8,5.2c0.9,1.4,2,2.6,3.4,3.5c1.5,0.9,3.1,1.6,4.8,2c1.9,0.4,3.8,0.7,5.8,0.7c1.4,0,2.8-0.1,4.2-0.3
				c1.4-0.2,2.8-0.6,4.1-1.3c2.8-1.3,4.5-4.2,4.3-7.3c0.1-1.7-0.4-3.3-1.5-4.6c-1.2-1.2-2.8-2.1-4.5-2.4c-1.2-0.3-2.4-0.5-3.6-0.6
				c-1.3-0.1-2.6-0.2-3.9-0.4c-1.4-0.1-2.8-0.3-4.2-0.6c-1.5-0.2-3-0.6-4.4-1.1c-1.2-0.4-2.3-0.9-3.4-1.5c-1-0.6-1.8-1.3-2.6-2.1
				c-0.7-0.9-1.3-1.8-1.7-2.9c-0.4-1.2-0.6-2.5-0.6-3.8c0-2,0.5-4,1.4-5.7c0.9-1.5,2.2-2.8,3.7-3.7c1.6-0.9,3.3-1.6,5.1-2
				c1.9-0.4,3.9-0.6,5.8-0.6c2.2,0,4.3,0.3,6.4,0.8c1.9,0.5,3.8,1.3,5.4,2.4c1.6,1.1,2.8,2.6,3.7,4.3c0.9,2,1.5,4.1,1.5,6.3h-4
				L250.6,16.6z"/>
			<path class="st0" d="M296.5,2.8c2.5,0,5.1,0.4,7.5,1.2c2.3,0.8,4.5,2,6.3,3.6c1.8,1.6,3.4,3.6,4.5,5.8c1.2,2.4,2,5,2.3,7.7h-4.3
				c-0.3-2.2-0.9-4.3-2-6.2c-0.9-1.7-2.2-3.3-3.7-4.5c-1.5-1.2-3.1-2.1-4.9-2.8c-1.9-0.6-3.8-0.9-5.8-0.9c-4.6-0.1-9,1.8-12.1,5.2
				c-1.5,1.7-2.7,3.6-3.4,5.8c-0.8,2.3-1.2,4.7-1.2,7.2c0,2.5,0.4,5,1.2,7.3c0.7,2.2,1.9,4.2,3.4,5.9c1.4,1.7,3.2,3,5.2,3.9
				c2.1,1,4.3,1.5,6.6,1.4c2,0,4-0.4,5.9-1.1c1.8-0.7,3.5-1.7,5-3c1.5-1.3,2.7-2.9,3.7-4.6c1-1.8,1.7-3.8,2-5.8h4.2
				c-0.3,2.5-1.1,4.9-2.2,7.2c-1.2,2.2-2.7,4.1-4.5,5.8c-1.8,1.7-4,3-6.3,3.9c-2.4,1-5.1,1.5-7.7,1.5c-2.9,0-5.7-0.6-8.3-1.8
				c-2.5-1.2-4.7-2.8-6.6-4.8c-1.9-2.1-3.3-4.5-4.3-7.1c-1-2.8-1.6-5.8-1.6-8.8c0-3,0.5-5.9,1.5-8.7c1-2.6,2.4-5,4.3-7.1
				c1.9-2,4.2-3.6,6.7-4.7C290.7,3.3,293.6,2.8,296.5,2.8z"/>
			<path class="st0" d="M323,46.3V3.9h4.5v42.4H323z"/>
			<path class="st0" d="M364,16.6c-0.1-1.6-0.5-3.2-1.2-4.6c-0.7-1.2-1.7-2.3-2.8-3.2c-1.2-0.8-2.6-1.4-4-1.8
				c-1.7-0.4-3.4-0.6-5.1-0.6c-1.3,0-2.6,0.1-3.9,0.3c-1.4,0.2-2.7,0.6-3.9,1.2c-1.2,0.6-2.2,1.4-3,2.5c-0.8,1.2-1.3,2.7-1.2,4.2
				c-0.1,1.1,0.2,2.3,0.7,3.3c0.5,0.8,1.1,1.6,1.8,2.2c0.8,0.6,1.7,1,2.6,1.4c1,0.3,2.1,0.6,3.1,0.8c0.9,0.2,1.8,0.3,2.7,0.4
				c1,0.1,2,0.3,3.1,0.4c1,0.1,2,0.2,3,0.4c0.8,0.1,1.7,0.2,2.5,0.4c1.4,0.2,2.8,0.5,4.1,1c1.2,0.5,2.4,1.1,3.4,1.9
				c1,0.9,1.8,1.9,2.3,3.1c0.6,1.5,0.9,3,0.8,4.6c0.1,2.2-0.4,4.4-1.5,6.3c-1,1.6-2.3,3-3.9,4c-1.7,1-3.5,1.7-5.4,2.1
				c-1.9,0.4-3.9,0.6-5.8,0.6c-2.5,0-4.9-0.3-7.3-1c-2.1-0.6-4.1-1.6-5.9-2.9c-1.7-1.3-3.1-2.9-4.2-4.7c-1.1-2-1.8-4.2-2-6.5h4.1
				c0.2,1.8,0.9,3.6,1.8,5.2c0.9,1.4,2,2.6,3.4,3.5c1.5,0.9,3.1,1.6,4.8,2c1.9,0.4,3.8,0.7,5.8,0.7c1.4,0,2.8-0.1,4.2-0.3
				c1.4-0.2,2.8-0.6,4.1-1.3c2.8-1.3,4.5-4.2,4.3-7.3c0.1-1.7-0.4-3.3-1.5-4.6c-1.2-1.2-2.8-2.1-4.5-2.4c-1.2-0.3-2.4-0.5-3.6-0.6
				c-1.3-0.1-2.6-0.2-3.9-0.4c-1.4-0.1-2.8-0.3-4.2-0.6c-1.5-0.2-3-0.6-4.4-1.1c-1.2-0.4-2.3-0.9-3.4-1.5c-1-0.6-1.8-1.3-2.6-2.1
				c-0.7-0.9-1.3-1.8-1.7-2.9c-0.4-1.2-0.6-2.5-0.6-3.8c-0.1-2,0.4-4,1.4-5.7c0.9-1.5,2.2-2.8,3.7-3.7c1.6-0.9,3.3-1.6,5.1-2
				c1.9-0.4,3.9-0.6,5.8-0.6c2.2,0,4.3,0.3,6.4,0.8c1.9,0.5,3.8,1.3,5.4,2.4c1.6,1.1,2.8,2.6,3.7,4.3c0.9,2,1.5,4.1,1.5,6.3
				L364,16.6L364,16.6z"/>
			<path class="st0" d="M374.6,46.3V3.9h32.1v3.7H379v15h23.4v3.8H379v16.1h27.7v3.7L374.6,46.3L374.6,46.3z"/>
			<path class="st0" d="M443.6,38.2h-25l-3.6,8.1h-4.8l20.3-42.4h2.5l19.3,42.4h-5L443.6,38.2z M420.2,34.6H442l-10.8-24.3
				L420.2,34.6z"/>
			<path class="st0" d="M453.1,3.9h4.5v25.5c0,4.5,1.1,8,3.3,10.4s5.6,3.7,10.4,3.7s8.1-1.2,10.4-3.5s3.4-5.7,3.4-10.2V4h4.2v26.1
				c0,5.9-1.6,10.2-4.7,13.1s-7.5,4.3-13.1,4.3c-6,0-10.6-1.5-13.6-4.6s-4.6-7.5-4.6-13.3V3.9H453.1z"/>
			<path class="st0" d="M530.8,3.9l-15.6,20.5l17.1,21.9h-5.4l-14.5-18.9L498,46.3h-4.8L510,24.5L493.9,4h5.3l13.5,17.5L526,4
				L530.8,3.9L530.8,3.9z"/>
			<path class="st0" d="M144.4,117.6V75.2h14.9c3-0.1,6,0.5,8.8,1.8c2.4,1.1,4.6,2.8,6.4,4.8c1.7,2,3,4.3,3.9,6.8
				c1.8,5.2,1.7,10.8-0.1,15.9c-0.9,2.5-2.3,4.7-4,6.7c-1.8,2-4,3.5-6.4,4.6c-2.7,1.2-5.6,1.7-8.5,1.7L144.4,117.6L144.4,117.6z
				 M159.2,113.7c2.1,0,4.2-0.4,6.1-1.2c1.9-0.8,3.6-1.9,5-3.4c1.5-1.6,2.6-3.4,3.4-5.4c0.9-2.3,1.4-4.8,1.3-7.3
				c0-2.4-0.4-4.8-1.2-7.1c-0.7-2-1.9-3.9-3.3-5.5c-1.4-1.5-3.1-2.7-5-3.6c-2-0.9-4.3-1.4-6.5-1.3h-10.4v34.7h10.6L159.2,113.7z"/>
			<path class="st0" d="M185.6,117.6V75.2h32.1v3.7h-27.7v15h23.4v3.8h-23.4v16.1h27.7v3.7h-32.1V117.6z"/>
			<path class="st0" d="M244.9,97.8v19.8h-4.5V75.2h31.2v3.7h-26.7V94h22.4v3.8H244.9z"/>
			<path class="st0" d="M277,117.6V75.2h4.5v38.5h28.7v3.9H277z"/>
			<path class="st0" d="M331.5,118.6c-2.9,0-5.7-0.6-8.4-1.7c-2.5-1.1-4.8-2.7-6.6-4.7c-1.9-2.1-3.4-4.5-4.3-7.2
				c-1-2.9-1.5-5.9-1.5-9c0-3.1,0.5-6.3,1.7-9.2c1.1-2.6,2.6-4.9,4.6-6.9c1.9-1.9,4.2-3.4,6.8-4.4c2.7-1,5.5-1.5,8.3-1.5
				c2.8,0,5.6,0.5,8.2,1.6c2.4,1,4.6,2.5,6.4,4.4c1.9,2,3.3,4.3,4.2,6.9c1,2.8,1.5,5.8,1.5,8.8c0,3.1-0.5,6.2-1.5,9.1
				c-1,2.7-2.4,5.2-4.3,7.3c-1.8,2.1-4.1,3.7-6.6,4.8C337.3,118,334.4,118.6,331.5,118.6z M331.5,114.7c2.3,0,4.5-0.5,6.6-1.4
				c2-0.9,3.8-2.3,5.3-3.9c1.5-1.7,2.7-3.7,3.5-5.9c0.8-2.4,1.2-5,1.2-7.5c0-2.5-0.4-4.9-1.2-7.2c-0.7-2.1-1.9-4-3.3-5.7
				c-1.4-1.6-3.1-2.9-5.1-3.7c-4.2-1.7-9-1.7-13.2,0c-2,0.9-3.8,2.1-5.3,3.7c-1.6,1.7-2.8,3.6-3.5,5.8c-0.9,2.4-1.4,4.9-1.3,7.5
				c0,2.5,0.4,5,1.2,7.4c0.7,2.2,1.9,4.1,3.4,5.8c1.5,1.6,3.2,2.9,5.2,3.8C327,114.2,329.2,114.7,331.5,114.7z"/>
			<path class="st0" d="M391.8,117.6c-0.6-0.8-1-1.8-1.1-2.8c-0.1-1-0.2-1.9-0.3-2.8c-0.1-1.5-0.3-2.9-0.6-4.4
				c-0.3-1.4-0.7-2.7-1.3-4c-0.6-1.2-1.4-2.2-2.5-2.9c-1.2-0.8-2.7-1.2-4.2-1.1H363v18.1h-4.4V75.3h21.1c1.9,0,3.8,0.2,5.6,0.5
				c1.7,0.3,3.4,0.9,4.9,1.8c1.5,0.9,2.7,2.2,3.5,3.8c1,2,1.4,4.1,1.3,6.3c0.1,2.5-0.8,4.9-2.3,6.9c-1.6,1.9-3.9,3.2-6.4,3.5
				c1.4,0.3,2.8,0.9,4,1.8c1,0.9,1.9,1.9,2.5,3.1c0.6,1.3,1.1,2.6,1.4,4c0.3,1.5,0.5,3,0.7,4.5c0.1,1.1,0.2,2.3,0.3,3.3
				c0.1,1.1,0.5,2.1,1.2,2.9h-4.6L391.8,117.6z M363,95.9h19.4c1.1,0,2.2-0.2,3.3-0.5c1-0.4,1.9-0.9,2.6-1.6
				c0.7-0.7,1.3-1.6,1.8-2.5c0.5-1.1,0.7-2.2,0.7-3.4c0.1-1.5-0.3-3.1-0.9-4.5c-0.5-1.1-1.4-2.1-2.4-2.8c-1.1-0.7-2.3-1.2-3.5-1.4
				c-1.3-0.3-2.7-0.4-4-0.4h-16.9v17.1L363,95.9z"/>
			<path class="st0" d="M401.9,117.6V75.2h4.5v42.4H401.9z"/>
			<path class="st0" d="M446,117.6l-27.8-37v37h-4V75.2h5.9l25.7,34.3V75.2h4.1v42.4H446z"/>
			<path class="st0" d="M457.2,117.6V75.2h32.1v3.7h-27.7v15H485v3.8h-23.4v16.1h27.7v3.7h-32.1V117.6z"/>
			<path class="st1" d="M103.1,174.1h-88C7.9,174.1,2,168.2,2,161V15.1C2,7.9,7.9,2,15.1,2h88.1c7.3,0,13.1,5.9,13.1,13.1v145.9
				C116.3,168.3,110.4,174.1,103.1,174.1z"/>
			<path class="st1" d="M67.6,2c0,0-36.1,31.5,7.2,65.7s27.8,97.3,12.5,106.4"/>
			<path class="st1" d="M45,2c0,0-42,31.5-14.4,68.3s77.8,46,29.7,103.8"/>
			<path class="st1" d="M90.4,2c0,0-17.4,37.2,25.9,71.1"/>
			<path class="st1" d="M21.2,49.1c0,0,0.9,90.7,17.9,85.8s32.2-4.1,34.3,20.4"/>
			<path class="st2" d="M154.5,149.4c1.1,0,2.3,0.2,3.3,0.6c1,0.4,2,0.9,2.8,1.6c0.8,0.7,1.5,1.6,2,2.5c0.6,1.1,0.9,2.2,1,3.4h-4.2
				c-0.2-1.2-0.9-2.3-1.8-3.1c-0.9-0.7-2-1.1-3.1-1.1c-0.7,0-1.4,0.1-2.1,0.4c-0.6,0.2-1.2,0.6-1.6,1.1c-0.4,0.5-0.8,1.1-1,1.7
				c-0.3,0.7-0.4,1.4-0.4,2.2c0,0.8,0.1,1.6,0.4,2.3c0.2,0.7,0.6,1.3,1,1.8c0.4,0.5,1,0.9,1.6,1.2c0.7,0.3,1.4,0.4,2.1,0.4
				c0.6,0,1.1-0.1,1.6-0.3c0.5-0.2,1-0.5,1.5-0.8c0.5-0.4,0.8-0.8,1.2-1.3c0.3-0.5,0.6-1.1,0.7-1.7h4.1c-0.1,1.1-0.5,2.2-1,3.2
				c-0.5,1-1.2,1.8-2,2.5c-0.8,0.7-1.8,1.3-2.8,1.7c-1,0.4-2.1,0.6-3.2,0.6c-1.3,0-2.6-0.2-3.9-0.7c-1.1-0.5-2.1-1.1-3-2
				c-0.8-0.9-1.5-1.9-1.9-3c-0.5-1.2-0.7-2.5-0.7-3.8c0-1.2,0.2-2.4,0.7-3.6c0.4-1.1,1.1-2.1,1.9-2.9c0.9-0.9,1.9-1.5,3-2
				C151.9,149.7,153.2,149.4,154.5,149.4z"/>
			<path class="st2" d="M174.4,168.2c-1.3,0-2.6-0.2-3.8-0.7c-1.1-0.4-2.2-1.1-3-2c-0.8-0.9-1.5-1.9-1.9-3.1
				c-0.5-1.2-0.7-2.6-0.7-3.9c0-1.3,0.2-2.6,0.8-3.8c1-2.2,2.8-3.9,5-4.7c1.2-0.4,2.4-0.7,3.6-0.6c1.3,0,2.5,0.2,3.7,0.7
				c1.1,0.4,2.1,1.1,2.9,1.9c0.8,0.8,1.5,1.8,1.9,2.9c0.5,1.2,0.7,2.5,0.7,3.8c0,1.3-0.2,2.6-0.7,3.8c-0.4,1.1-1.1,2.2-1.9,3.1
				c-0.8,0.9-1.8,1.5-2.9,2C176.8,167.9,175.6,168.2,174.4,168.2z M174.4,164.3c1.3,0,2.6-0.6,3.5-1.6c0.4-0.5,0.8-1.1,1-1.7
				c0.2-0.7,0.4-1.4,0.4-2.1c0-0.8-0.1-1.5-0.3-2.3c-0.2-0.7-0.6-1.3-1-1.8c-0.4-0.5-1-0.9-1.6-1.2c-0.7-0.3-1.4-0.4-2.1-0.4
				c-0.7,0-1.4,0.1-2,0.4c-0.6,0.3-1.1,0.7-1.5,1.2c-0.4,0.5-0.8,1.1-1,1.8c-0.2,0.7-0.3,1.4-0.3,2.1c0,0.7,0.1,1.5,0.3,2.2
				c0.2,0.6,0.6,1.2,1,1.8c0.4,0.5,1,0.9,1.6,1.2C172.9,164.2,173.6,164.3,174.4,164.3L174.4,164.3z"/>
			<path class="st2" d="M185.9,167.7v-17.9h4.3v17.9H185.9z"/>
			<path class="st2" d="M197.6,160.5v7.3h-4.4v-17.9h13.9v3.6h-9.5v3.4h7.6v3.6H197.6z"/>
			<path class="st2" d="M213.4,160.5v7.3H209v-17.9h13.9v3.6h-9.5v3.4h7.6v3.6H213.4z"/>
			<path class="st2" d="M224.9,167.7v-17.9h14.3v3.6h-9.9v3.3h8v3.5h-8v3.8h9.9v3.6L224.9,167.7z"/>
			<path class="st2" d="M253.1,149.9h4.1v11c0,2.5-0.7,4.3-2.1,5.5c-1.4,1.2-3.4,1.8-6.1,1.8c-2.1,0.1-4.2-0.6-5.8-1.9
				c-1.4-1.5-2.1-3.5-2-5.6v-10.7h4.4v10.4c0,0.6,0.1,1.1,0.2,1.7c0.1,0.5,0.3,0.9,0.6,1.3c0.3,0.4,0.7,0.7,1.1,0.8
				c0.6,0.2,1.2,0.3,1.8,0.3c0.6,0,1.2-0.1,1.8-0.3c0.5-0.2,0.8-0.4,1.1-0.8c0.3-0.4,0.5-0.8,0.6-1.3c0.1-0.6,0.2-1.1,0.2-1.7
				L253.1,149.9z"/>
			<path class="st2" d="M270.6,155.2c0-0.4-0.2-0.8-0.5-1.1c-0.2-0.3-0.5-0.5-0.9-0.7c-0.4-0.2-0.7-0.3-1.1-0.4
				c-0.4-0.1-0.8-0.1-1.2-0.1c-0.3,0-0.6,0-0.9,0.1c-0.4,0-0.8,0.1-1.1,0.2c-0.4,0.1-0.7,0.3-0.9,0.6c-0.3,0.3-0.4,0.6-0.4,1
				c0,0.3,0.1,0.6,0.3,0.8c0.2,0.2,0.4,0.4,0.6,0.5c0.3,0.1,0.6,0.2,0.9,0.3c0.3,0.1,0.6,0.1,0.9,0.2l3.8,0.6
				c1.4,0.2,2.6,0.7,3.7,1.6c0.9,0.9,1.4,2.1,1.3,3.4c0,1-0.2,1.9-0.6,2.8c-0.4,0.7-1,1.4-1.7,1.8c-0.7,0.5-1.6,0.8-2.4,1
				c-0.9,0.2-1.9,0.3-2.9,0.3c-0.9,0-1.9-0.1-2.8-0.3c-0.9-0.2-1.8-0.6-2.6-1.1c-0.8-0.5-1.5-1.2-2-2c-0.6-0.9-0.9-1.9-1-2.9h3.9
				c0.1,0.5,0.4,1,0.7,1.4c0.3,0.4,0.7,0.6,1.2,0.9c0.5,0.2,0.9,0.4,1.4,0.4c0.5,0.1,1,0.1,1.5,0.1c0.2,0,0.5,0,0.9,0
				c0.4,0,0.8-0.1,1.2-0.2c0.4-0.1,0.7-0.3,1-0.6c0.6-0.6,0.6-1.6,0-2.2c0,0,0,0,0,0c-0.4-0.2-0.7-0.4-1.1-0.5
				c-0.6-0.1-1.3-0.3-2-0.4c-0.7-0.1-1.5-0.2-2.2-0.4c-0.7-0.2-1.4-0.3-2.1-0.6c-0.6-0.2-1.2-0.5-1.8-0.9c-0.5-0.4-0.9-0.9-1.2-1.5
				c-0.3-0.7-0.5-1.5-0.5-2.2c-0.1-1.8,0.8-3.4,2.3-4.4c0.7-0.5,1.5-0.8,2.3-1c0.9-0.2,1.8-0.3,2.7-0.3c0.9,0,1.8,0.1,2.7,0.4
				c0.8,0.2,1.6,0.6,2.3,1.1c0.7,0.5,1.3,1.1,1.7,1.8c0.5,0.8,0.7,1.7,0.7,2.6L270.6,155.2z"/>
			<path class="st2" d="M276.9,167.7v-17.9h14.3v3.6h-9.9v3.3h8v3.5h-8v3.8h10v3.6L276.9,167.7z"/>
			<path class="st2" d="M312.8,167.7l-1-2.4h-7.2l-1,2.4H299l8.4-17.9h2.4l7.9,17.9H312.8z M308.3,148.2l-4.3-4.4h4l2.5,4.4H308.3z
				 M308.2,156.1l-2.4,6.1h4.8L308.2,156.1z"/>
			<path class="st2" d="M326,167.7v-17.9h6.6c1.3,0,2.6,0.2,3.9,0.8c2.1,0.9,3.8,2.7,4.6,4.9c0.4,1.1,0.6,2.2,0.6,3.3
				c0,1.2-0.2,2.3-0.6,3.4c-0.8,2.2-2.5,3.9-4.6,4.8c-1.2,0.5-2.5,0.7-3.8,0.7L326,167.7z M332.4,164c0.6,0,1.3-0.1,1.9-0.3
				c0.6-0.2,1.1-0.5,1.5-0.9c0.4-0.4,0.8-1,1-1.6c0.3-0.7,0.4-1.4,0.4-2.2c0-0.8-0.1-1.6-0.4-2.3c-0.2-0.6-0.6-1.2-1-1.7
				c-0.4-0.4-0.9-0.8-1.5-1c-0.6-0.2-1.3-0.4-2-0.3h-2V164H332.4z"/>
			<path class="st2" d="M352.4,168.2c-1.3,0-2.6-0.2-3.8-0.7c-1.1-0.4-2.2-1.1-3-2c-0.8-0.9-1.5-1.9-1.9-3.1
				c-0.5-1.2-0.7-2.6-0.7-3.9c0-1.3,0.2-2.6,0.8-3.8c1-2.2,2.8-3.9,5-4.7c1.2-0.4,2.4-0.7,3.6-0.6c1.3,0,2.5,0.2,3.7,0.7
				c1.1,0.4,2.1,1.1,2.9,1.9c0.8,0.8,1.5,1.8,1.9,2.9c0.5,1.2,0.7,2.5,0.7,3.8c0,1.3-0.2,2.6-0.7,3.8c-0.4,1.1-1.1,2.2-1.9,3.1
				C357.2,167.2,354.8,168.2,352.4,168.2L352.4,168.2z M352.4,164.3c1.3,0,2.6-0.6,3.5-1.6c0.4-0.5,0.8-1.1,1-1.7
				c0.2-0.7,0.4-1.4,0.4-2.1c0-0.8-0.1-1.5-0.3-2.3c-0.2-0.7-0.5-1.3-1-1.8c-0.4-0.5-1-0.9-1.6-1.2c-0.7-0.3-1.4-0.4-2.1-0.4
				c-0.7,0-1.4,0.1-2,0.4c-0.6,0.3-1.1,0.7-1.5,1.2c-0.4,0.5-0.8,1.1-1,1.8c-0.2,0.7-0.3,1.4-0.3,2.1c0,0.7,0.1,1.5,0.4,2.2
				c0.2,0.6,0.6,1.2,1,1.8c0.4,0.5,1,0.9,1.5,1.2C350.9,164.2,351.6,164.3,352.4,164.3L352.4,164.3z"/>
			<path class="st2" d="M378.5,167.7v-13.5l-4.2,13.5h-2.5l-4.2-13.5v13.5h-3.9v-17.9h6.6l3,11.1l3.2-11.1h6.3v17.9H378.5z"/>
			<path class="st2" d="M385.8,167.7v-17.9h4.3v17.9H385.8z"/>
			<path class="st2" d="M401.9,149.4c1.1,0,2.3,0.2,3.3,0.6c1,0.3,2,0.9,2.8,1.6c0.8,0.7,1.5,1.6,2,2.5c0.6,1.1,0.9,2.2,1,3.4h-4.2
				c-0.2-1.2-0.9-2.3-1.8-3.1c-0.9-0.7-2-1.1-3.1-1.1c-0.7,0-1.4,0.1-2.1,0.4c-0.6,0.2-1.2,0.6-1.6,1.1c-0.5,0.5-0.8,1.1-1,1.7
				c-0.3,0.7-0.4,1.4-0.4,2.2c0,0.8,0.1,1.6,0.4,2.3c0.2,0.7,0.6,1.3,1,1.8c0.4,0.5,1,0.9,1.6,1.2c0.7,0.3,1.4,0.4,2.1,0.4
				c0.6,0,1.1-0.1,1.6-0.3c1.1-0.4,2-1.2,2.6-2.1c0.3-0.5,0.6-1.1,0.7-1.7h4c-0.1,1.1-0.5,2.2-1,3.2c-1.1,1.9-2.8,3.4-4.8,4.2
				c-1,0.4-2.1,0.6-3.2,0.6c-1.3,0-2.6-0.2-3.9-0.7c-2.3-0.9-4-2.8-4.9-5.1c-0.5-1.2-0.7-2.5-0.7-3.8c0-1.2,0.2-2.4,0.7-3.6
				c0.4-1.1,1.1-2.1,1.9-2.9c0.9-0.9,1.9-1.5,3-2C399.3,149.6,400.6,149.4,401.9,149.4z"/>
			<path class="st2" d="M413.2,167.7v-17.9h4.3v17.9H413.2z"/>
			<path class="st2" d="M420.5,167.7v-17.9h4.4v14h10.4v3.9L420.5,167.7z"/>
			<path class="st2" d="M437.3,167.7v-17.9h14.3v3.6h-9.9v3.3h8v3.5h-8v3.8h10v3.6L437.3,167.7z"/>
		</g>
	</g>
</g>
</svg>
