<svg xmlns="http://www.w3.org/2000/svg" viewBox="0 0 363.64 290.71"><defs><style>.cls-1{fill:#334b7df3;}</style></defs><g id="Calque_2" data-name="Calque 2"><g id="Calque_1-2" data-name="Calque 1"><path class="cls-1" d="M266.5,21.56,97.58.58A90.71,90.71,0,0,0,87.44,0,87.61,87.61,0,0,0,0,87.58V89.4a87.67,87.67,0,0,0,44.47,76.26l23.36,94.42a40.33,40.33,0,0,0,39,30.63,40.52,40.52,0,0,0,9.74-1.2l.65-.16a40.27,40.27,0,0,0,29.42-48.77L129.81,172.4l136.69-17a7.5,7.5,0,0,0,6.57-7.44V29A7.5,7.5,0,0,0,266.5,21.56ZM132.11,244.18a25.27,25.27,0,0,1-18.47,30.61L113,275a25.29,25.29,0,0,1-30.61-18.47L61.77,173.13A87.1,87.1,0,0,0,87.44,177a88.27,88.27,0,0,0,10.21-.59l17.17-2.13,17.29,69.92Zm126-102.82L95.87,161.5a74.62,74.62,0,0,1-8.44.48A72.59,72.59,0,0,1,15,89.4V87.58a72.47,72.47,0,0,1,80.8-72.1L258.07,35.63V141.36Z"/><path class="cls-1" d="M41.91,88.49A49.89,49.89,0,1,0,91.79,38.61,49.94,49.94,0,0,0,41.91,88.49Zm84.77,0A34.89,34.89,0,1,1,91.79,53.61,34.93,34.93,0,0,1,126.68,88.49Z"/><path class="cls-1" d="M291.15,64.83c4.36,0,6.46,2.34,10.42,7.22C306,77.44,312,84.82,323.64,84.82s17.69-7.38,22.07-12.77c4-4.88,6.07-7.23,10.43-7.23a7.5,7.5,0,1,0,0-15c-11.7,0-17.69,7.39-22.07,12.78-4,4.88-6.07,7.22-10.43,7.22s-6.46-2.34-10.43-7.22c-4.37-5.39-10.37-12.78-22.06-12.78a7.51,7.51,0,0,0,0,15Z"/><path class="cls-1" d="M356.14,95.13c-11.7,0-17.69,7.38-22.07,12.77-4,4.88-6.07,7.23-10.43,7.23s-6.46-2.35-10.43-7.23c-4.37-5.39-10.37-12.77-22.06-12.77a7.5,7.5,0,0,0,0,15c4.36,0,6.46,2.35,10.42,7.23,4.38,5.39,10.38,12.77,22.07,12.77s17.69-7.38,22.07-12.77c4-4.89,6.07-7.23,10.43-7.23a7.5,7.5,0,0,0,0-15Z"/></g></g></svg>