<svg xmlns="http://www.w3.org/2000/svg" viewBox="0 0 429.98 429.98"><defs><style>.cls-1{fill:#334b7df3;}</style></defs><g id="Calque_2" data-name="Calque 2"><g id="Capa_1" data-name="Capa 1"><path class="cls-1" d="M193.26,209.59a29.36,29.36,0,0,0-41.52,41.52l19.54,19.53a29.38,29.38,0,0,0,41.52,0h0a29.41,29.41,0,0,0,0-41.52Zm5.39,46.91a9.36,9.36,0,0,1-13.23,0L165.89,237a9.36,9.36,0,0,1,13.23-13.23l19.53,19.53A9.37,9.37,0,0,1,198.65,256.5Z"/><path class="cls-1" d="M430,118.41,428.1,93a10,10,0,0,0-9.25-9.25L402,82.51l-1.22-16.82a10,10,0,0,0-9.25-9.24l-16.81-1.23-1.23-16.81a10,10,0,0,0-9.24-9.25l-16.81-1.22-1.23-16.81A10,10,0,0,0,337,1.88L311.57,0a10,10,0,0,0-7.79,2.9l-35.71,35.7,0,0C266.3,40.4,264.62,42.18,263,44,228.35,80.58,32.38,287.62,17.25,304.69c-12.93,14.59-12.76,35.52.41,48.69l6.1,6.1-14.1,14.1A33.05,33.05,0,0,0,56.4,420.32l14.1-14.1,6.11,6.1c13.16,13.17,34.09,13.35,48.68.42C142.37,397.6,349.41,201.63,386,167c1.81-1.64,3.6-3.33,5.35-5.07l0,0,35.7-35.69A10,10,0,0,0,430,118.41ZM369.25,74.87l12.25.9L382.39,88,357,113.41l-13.15-13.14ZM342,47.59l12.25.89.89,12.25-25.4,25.4L316.57,73ZM314.69,20.31l12.24.89.9,12.25-25.4,25.4L289.29,45.7ZM42.26,406.18a13,13,0,1,1-18.45-18.45l14.1-14.11,18.45,18.46ZM112,397.77c-6.55,5.81-15.7,6-21.27.41L77.57,385,31.8,339.24c-5.57-5.58-5.39-14.73.42-21.28C43.56,305.15,163,178.77,232.68,105.12c-.25,1.51-.47,3-.65,4.54-3.2,26.55,4.28,50.42,21.08,67.22s40.67,24.28,67.22,21.07c1.51-.18,3-.4,4.53-.65C251.21,267,124.83,386.42,112,397.77Zm155.23-235c-12.36-12.35-17.81-30.35-15.36-50.68,2.2-18.25,10.47-36.38,23.55-51.9L288.29,73,272.54,88.73a10,10,0,1,0,14.15,14.14l15.74-15.74,13.14,13.14L299.83,116A10,10,0,1,0,314,130.16l15.74-15.75,13.15,13.15L327.11,143.3a10,10,0,0,0,14.15,14.14L357,141.7l12.84,12.84C336,183,291.62,187.11,267.25,162.73Zm117-22-13.14-13.14,25.39-25.4,12.25.89.9,12.25Z"/></g></g></svg>